<svg class="thumb" width="737" height="641" viewBox="0,0,737,641" xmlns="http://www.w3.org/2000/svg" xmlns:inkscape="http://www.inkscape.org/namespaces/inkscape" xmlns:sodipodi="http://sodipodi.sourceforge.net/DTD/sodipodi-0.dtd" xmlns:xlink="http://www.w3.org/1999/xlink" xmlns:ns1="http://www.inkscape.org/namespaces/inkscape" xmlns:sketch="http://www.bohemiancoding.com/sketch/ns"><defs></defs><g><g transform="matrix(4.2006,0,0,4.2006,185.8415,253.6137)"><svg width="100.98393394289494" height="62.19466666666667" viewBox="-0.4909339428949435,18.904000000000003,100.98393394289494,62.19466666666667"><defs><linearGradient x1="0" y1="0.5" x2="1" y2="0.5" id="linearGradientSke63oown413"><stop offset="0%" stop-color="#000000"></stop><stop offset="100%" stop-color="#000000"></stop></linearGradient></defs><path d="M76.851,41.054c-0.732,0-1.455,0.048-2.171,0.121c0.3-0.216,0.623-0.657,0.623-0.657s0.178-3.514,0.356-4.05    c0.179-0.536,1.608-4.109,1.608-4.705c0-0.595-0.238-2.62-0.982-2.62c-0.745,0-1.578,0.536-1.936,1.787    c-0.357,1.25-1.728,3.097-2.858,4.526c-1.132,1.429-12.269,10.125-13.579,10.66c-1.31,0.536-2.858,0.596-3.633,1.311    c-1.19,0.536-2.203,0.298-2.203,0.298l-2.919,1.846c0,0-10.779,7.802-12.089,9.469c-1.906,0.238-2.561,0-2.561,0    s-2.62-2.68-2.858-4.05c-0.238-1.369-0.477-4.764-0.477-6.134s-2.025-3.156-3.037-3.931c-1.013-0.774-4.354-4.705-4.354-4.705    L23,40.161v-1.608c0,0,1.972,0.119,2.389-0.238s1.045-1.846,1.075-2.412s1.178-0.625,1.178-0.625s-0.75-1.697-0.84-2.441    c-0.089-0.745,0.056-1.281,0.056-1.281s0.593-0.982,0.891-1.787c0.298-0.804,0.506-1.667,0.238-2.173    c-0.268-0.506-2.74-3.692-6.998-3.692c-4.258,0-4.467,2.739-4.467,2.739s-1.846-0.149-2.025,0.149s-0.268,0.566-0.268,0.566    s-1.667-0.208-2.203,0.417c-0.536,0.625-1.519,1.43-1.519,5.479c0,4.05,0.894,4.318,1.102,5.301    c0.208,0.982-0.119,3.305-0.864,3.365c1.489-0.149,3.752-1.519,3.96-3.067c0.208-1.548,0.119-6.521-0.298-7.652    c-0.417-1.132-0.357-2.055-0.06-2.233c0.119,0.477,0.119,0.477,0.119,0.477l1.221-0.03c0,0-0.089,0.625,0.089,1.459    c0.178,0.833,0.536,2.918,1.459,3.752c0.03,0.982,0.179,5.3,0.179,5.3s-1.906,1.489-2.68,3.037    c-0.774,1.548-1.161,1.936-1.31,3.931s0.387,5.002,0.625,6.521c0.238,1.519,0.446,4.407,0.327,5.33    c-0.119,0.924-0.06,1.132-0.06,1.132s-1.102,0.863-1.34,2.591c-0.238,1.727-1.519,5.568-1.519,5.568l-1.221,0.655    c0,0-1.965,0.148-2.382,0.327s-0.953,1.072,0,1.042c0.953-0.029,2.769,0,2.769,0l-0.03,1.489L8.75,72.767l-0.536,0.655    l-2.263,0.953c0,0-2.323,1.638-1.072,1.697c1.25,0.06,3.871,0,3.871,0s0.238-0.566,0.864-1.103s0.655-0.714,0.774-0.654    c0.119,0.06,0.446,0.982,0.446,0.982s0.387,0.506,0.715,0.446s1.102-0.268,1.102-0.387s0.089-1.519,0.089-1.728    c0-0.208,0.03-1.607,0.03-1.607l1.221-2.055c0,0,2.471-4.348,2.739-6.016c0.268-1.667,0.387-2.322,0.387-2.322    s1.906-3.604,1.787-4.079c0.744,1.459,4.734,8.099,5.747,9.022c0.595,1.488,1.548,4.973,3.246,6.134s3.156,1.489,4.705,1.489    c1.549,0,5.658-0.417,6.998-1.341c1.34-0.923,16.646-18.818,16.646-18.818s1.676-0.725,2.665-1.172    c-0.442,1.39-0.7,2.857-0.7,4.401c0,9.332,8.346,16.899,18.641,16.899s18.641-7.567,18.641-16.899    C95.491,47.934,87.038,41.054,76.851,41.054z M71.553,41.725c0.018-0.014,0.043-0.036,0.058-0.045    c0.576-0.422,1.663-0.43,2.317-0.408C73.122,41.383,72.326,41.526,71.553,41.725z" fill="url('#linearGradientSke63oown413')"></path></svg></g><g transform="matrix(1.2406,0,0,1.2406,0.1269,485.2329)"><svg width="445.5" height="186" style="overflow: visible;"><defs><linearGradient x1="0" y1="0.5" x2="1" y2="0.5" id="linearGradientSke63oown41b"><stop offset="0%" stop-color="#000000"></stop><stop offset="100%" stop-color="#000000"></stop></linearGradient></defs><g><path d="M-192.7466796875 0L-192.7466796875-88.82L-180.3966796875-88.82L-180.3966796875-73L-181.0266796875-61.47Q-179.6666796875-63.38 -178.0766796875-64.62Q-176.4866796875-65.87 -174.8066796875-66.63Q-173.1166796875-67.38 -171.3866796875-67.7Q-169.6566796875-68.02 -167.9466796875-68.02L-167.9466796875-68.02Q-162.0366796875-68.02 -158.8366796875-63.89Q-155.6366796875-59.77 -155.6366796875-51.51L-155.6366796875-51.51L-155.6366796875 0L-167.9966796875 0L-167.9966796875-51.07Q-167.9966796875-55.52 -169.3566796875-57.25Q-170.7266796875-58.98 -173.3666796875-58.98L-173.3666796875-58.98Q-175.2166796875-58.98 -177.0966796875-57.74Q-178.9766796875-56.49 -180.3966796875-54.3L-180.3966796875-54.3L-180.3966796875 0L-192.7466796875 0ZM-133.5643359375 0.73L-133.5643359375 0.73Q-136.6943359375 0.73 -139.1143359375-0.51Q-141.5243359375-1.76 -143.1843359375-3.91Q-144.8443359375-6.05 -145.7043359375-9.01Q-146.5543359375-11.96 -146.5543359375-15.43L-146.5543359375-15.43Q-146.5543359375-19.58 -145.5343359375-22.8Q-144.5043359375-26.03 -142.5243359375-28.61Q-140.5543359375-31.2 -137.6243359375-33.33Q-134.6943359375-35.45 -130.8343359375-37.35L-130.8343359375-37.35Q-128.9843359375-38.28 -126.6643359375-39.23Q-124.3443359375-40.19 -122.5343359375-40.87L-122.5343359375-40.87L-122.5343359375-49.76Q-122.5343359375-51.71 -122.6843359375-53.39Q-122.8243359375-55.08 -123.3843359375-56.32Q-123.9543359375-57.57 -125.0743359375-58.28Q-126.1943359375-58.98 -128.1543359375-58.98L-128.1543359375-58.98Q-129.4643359375-58.98 -130.7143359375-58.5Q-131.9543359375-58.01 -132.9143359375-56.84Q-133.8643359375-55.66 -134.4243359375-53.71Q-134.9843359375-51.76 -134.9843359375-48.88L-134.9843359375-48.88L-134.9843359375-45.95L-144.4043359375-45.95Q-144.8443359375-47.85 -145.0643359375-49.44Q-145.2843359375-51.03 -145.2843359375-52.59L-145.2843359375-52.59Q-145.2843359375-56.35 -143.9943359375-59.23Q-142.7043359375-62.11 -140.3843359375-64.06Q-138.0643359375-66.02 -134.8343359375-67.02Q-131.61433593750002-68.02 -127.7543359375-68.02L-127.7543359375-68.02Q-122.73433593749999-68.02 -119.40433593750001-66.92Q-116.0843359375-65.82 -114.1143359375-63.62Q-112.1343359375-61.43 -111.3243359375-58.11Q-110.5243359375-54.79 -110.5243359375-50.34L-110.5243359375-50.34L-110.5243359375 0L-119.7043359375 0L-120.5843359375-5.76Q-122.5843359375-2.88 -125.9243359375-1.07Q-129.27433593749998 0.73 -133.5643359375 0.73ZM-128.1043359375-8.79L-128.1043359375-8.79Q-126.5343359375-8.79 -125.0443359375-9.59Q-123.5643359375-10.4 -122.5343359375-11.57L-122.5343359375-11.57L-122.5343359375-32.62Q-123.5143359375-32.23 -124.73433593749999-31.69Q-125.9543359375-31.15 -127.3643359375-30.27L-127.3643359375-30.27Q-128.6843359375-29.44 -129.9543359375-28.27Q-131.2243359375-27.1 -132.2243359375-25.49Q-133.2243359375-23.88 -133.8343359375-21.85Q-134.4443359375-19.82 -134.4443359375-17.33L-134.4443359375-17.33Q-134.4443359375-13.48 -132.9343359375-11.13Q-131.4243359375-8.79 -128.1043359375-8.79ZM-97.7271484375 0L-97.7271484375-67.24L-88.6971484375-67.24L-87.61714843749999-60.4Q-85.5671484375-64.21 -82.9071484375-66.11Q-80.2471484375-68.02 -77.4671484375-68.02L-77.4671484375-68.02Q-72.1471484375-68.02 -69.6071484375-64.75Q-67.06714843750001-61.47 -67.06714843750001-54.93L-67.06714843750001-54.93Q-67.06714843750001-54.1 -67.1871484375-52.95Q-67.30714843749999-51.81 -67.5271484375-50.56Q-67.7471484375-49.32 -68.06714843750001-48.07Q-68.3871484375-46.83 -68.7271484375-45.8L-68.7271484375-45.8L-77.3171484375-45.8L-77.3171484375-52.05Q-77.3171484375-54.1 -77.5871484375-55.42Q-77.8571484375-56.74 -78.2971484375-57.54Q-78.7371484375-58.35 -79.3171484375-58.67Q-79.9071484375-58.98 -80.5871484375-58.98L-80.5871484375-58.98Q-82.0571484375-58.98 -83.2971484375-58.03Q-84.5471484375-57.08 -85.3771484375-55.37L-85.3771484375-55.37L-85.3771484375 0L-97.7271484375 0ZM-46.36058593749998 0.78L-46.36058593749998 0.78Q-47.48058593749997 0.78 -49.00058593749997 0.56Q-50.51058593749997 0.34 -52.12058593749997-0.44Q-53.730585937499974-1.22 -55.300585937499974-2.78Q-56.86058593749997-4.35 -58.080585937499976-7.06Q-59.300585937499974-9.77 -60.06058593749997-13.77Q-60.81058593749997-17.77 -60.81058593749997-23.49L-60.81058593749997-23.49L-60.81058593749997-44.82Q-60.81058593749997-50.49 -60.01058593749997-54.39Q-59.20058593749997-58.3 -57.89058593749997-60.86Q-56.57058593749997-63.43 -54.93058593749997-64.87Q-53.300585937499974-66.31 -51.660585937499974-66.99Q-50.02058593749997-67.68 -48.53058593749997-67.82Q-47.050585937499974-67.97 -46.07058593749997-67.97L-46.07058593749997-67.97Q-44.26058593749997-67.97 -42.65058593749997-67.48Q-41.04058593749997-66.99 -39.720585937499976-66.19Q-38.40058593749997-65.38 -37.38058593749997-64.38Q-36.35058593749997-63.38 -35.67058593749997-62.35L-35.67058593749997-62.35L-35.62058593749997-62.4L-36.01058593749997-70.9L-36.01058593749997-88.82L-23.71058593749997-88.82L-23.71058593749997 0L-33.32058593749997 0L-34.40058593749997-6.25Q-35.23058593749997-4.93 -36.300585937499974-3.66Q-37.38058593749997-2.39 -38.84058593749997-1.39Q-40.31058593749997-0.39 -42.160585937499974 0.2Q-44.02058593749997 0.78 -46.36058593749998 0.78ZM-42.160585937499974-8.79L-42.160585937499974-8.79Q-40.940585937499975-8.79 -39.99058593749997-9.2Q-39.04058593749997-9.62 -38.28058593749997-10.28Q-37.52058593749997-10.94 -36.96058593749997-11.82Q-36.40058593749997-12.7 -36.01058593749997-13.62L-36.01058593749997-13.62L-36.01058593749997-54.05Q-36.940585937499975-56.1 -38.48058593749997-57.54Q-40.01058593749997-58.98 -42.21058593749997-58.98L-42.21058593749997-58.98Q-43.580585937499976-58.98 -44.70058593749997-58.5Q-45.82058593749997-58.01 -46.65058593749997-56.67Q-47.48058593749997-55.32 -47.95058593749997-52.95Q-48.410585937499974-50.59 -48.410585937499974-46.83L-48.410585937499974-46.83L-48.410585937499974-21.04Q-48.410585937499974-17.29 -47.95058593749997-14.89Q-47.48058593749997-12.5 -46.65058593749997-11.16Q-45.82058593749997-9.81 -44.68058593749997-9.3Q-43.53058593749997-8.79 -42.160585937499974-8.79ZM-16.138398437499994 0L-2.1683984374999934-34.13L-15.458398437499993-67.24L-2.808398437499992-67.24L 4.3716015625000075-45.21L 4.471601562500005-45.21L 12.081601562500008-67.24L 23.901601562500005-67.24L 11.161601562500007-35.3L 25.461601562500007 0L 12.821601562500007 0L 4.521601562500006-23.19L 4.1216015625000075-23.19L-4.268398437499993 0L-16.138398437499994 0ZM 48.704570312500024 0.73L 48.704570312500024 0.73Q 40.21457031250003 0.73  35.74457031250003-6.25Q 31.27457031250003-13.23  31.27457031250003-27.54L 31.27457031250003-27.54L 31.27457031250003-40.23Q 31.27457031250003-46.63  32.204570312500024-51.2Q 33.13457031250003-55.76  34.66457031250003-58.86Q 36.204570312500024-61.96  38.18457031250003-63.77Q 40.16457031250003-65.58  42.26457031250003-66.53Q 44.36457031250003-67.48  46.41457031250003-67.75Q 48.46457031250003-68.02  50.17457031250002-68.02L 50.17457031250002-68.02Q 53.58457031250003-68.02  56.42457031250002-67.11Q 59.25457031250003-66.21  61.304570312500026-64.38Q 63.35457031250003-62.55  64.47457031250002-59.77Q 65.60457031250003-56.98  65.60457031250003-53.22L 65.60457031250003-53.22Q 65.60457031250003-50.88  65.38457031250003-49.19Q 65.16457031250002-47.51  64.77457031250003-45.95L 64.77457031250003-45.95L 54.90457031250003-45.95L 54.90457031250003-48.19Q 54.90457031250003-53.27  53.71457031250003-56.13Q 52.51457031250003-58.98  49.78457031250003-58.98L 49.78457031250003-58.98Q 48.26457031250003-58.98  47.14457031250003-58.28Q 46.02457031250003-57.57  45.26457031250003-55.86Q 44.50457031250003-54.15  44.14457031250003-51.27Q 43.77457031250003-48.39  43.77457031250003-44.04L 43.77457031250003-44.04L 43.77457031250003-24.95Q 43.77457031250003-20.56  44.064570312500024-17.48Q 44.36457031250003-14.4  45.094570312500025-12.48Q 45.82457031250003-10.55  47.04457031250003-9.67Q 48.26457031250003-8.79  50.07457031250003-8.79L 50.07457031250003-8.79Q 51.00457031250003-8.79  51.88457031250003-9.25Q 52.75457031250003-9.72  53.41457031250003-10.79Q 54.07457031250003-11.87  54.49457031250003-13.65Q 54.90457031250003-15.43  54.90457031250003-18.07L 54.90457031250003-18.07L 54.90457031250003-20.17L 65.55457031250003-20.17L 65.55457031250003-17.58Q 65.55457031250003-8.01  61.32457031250003-3.64Q 57.10457031250003 0.73  48.704570312500024 0.73ZM 92.50386718750002 0.73L 92.50386718750002 0.73Q 90.35386718750003 0.73  88.13386718750003 0.39Q 85.91386718750003 0.05  83.83386718750003-1.03Q 81.76386718750003-2.1  79.93386718750003-4.1Q 78.10386718750003-6.1  76.73386718750002-9.38Q 75.36386718750003-12.65  74.58386718750003-17.43Q 73.80386718750003-22.22  73.80386718750003-28.86L 73.80386718750003-28.86L 73.80386718750003-39.4Q 73.80386718750003-45.95  74.61386718750003-50.61Q 75.41386718750003-55.27  76.80386718750003-58.45Q 78.19386718750003-61.62  80.05386718750003-63.5Q 81.91386718750003-65.38  83.98386718750002-66.38Q 86.06386718750002-67.38  88.25386718750002-67.7Q 90.45386718750002-68.02  92.55386718750003-68.02L 92.55386718750003-68.02Q 94.55386718750003-68.02  96.70386718750002-67.72Q 98.85386718750003-67.43  100.90386718750003-66.48Q 102.95386718750004-65.53  104.78386718750002-63.65Q 106.61386718750003-61.77  108.00386718750002-58.59Q 109.40386718750003-55.42  110.20386718750004-50.71Q 111.01386718750003-46  111.01386718750003-39.4L 111.01386718750003-39.4L 111.01386718750003-28.86Q 111.01386718750003-22.31  110.18386718750003-17.58Q 109.35386718750003-12.84  107.93386718750003-9.57Q 106.51386718750003-6.3  104.66386718750003-4.27Q 102.80386718750003-2.25  100.75386718750002-1.12Q 98.70386718750002 0  96.58386718750003 0.37Q 94.45386718750002 0.73  92.50386718750002 0.73ZM 92.60386718750003-8.79L 92.60386718750003-8.79Q 94.26386718750003-8.79  95.41386718750003-9.64Q 96.55386718750003-10.5  97.26386718750003-12.45Q 97.97386718750003-14.4  98.29386718750003-17.6Q 98.60386718750003-20.8  98.60386718750003-25.54L 98.60386718750003-25.54L 98.60386718750003-42.09Q 98.60386718750003-46.83  98.29386718750003-50.05Q 97.97386718750003-53.27  97.26386718750003-55.25Q 96.55386718750003-57.23  95.41386718750003-58.11Q 94.26386718750003-58.98  92.60386718750003-58.98L 92.60386718750003-58.98Q 90.84386718750002-58.98  89.64386718750004-58.11Q 88.45386718750002-57.23  87.67386718750004-55.25Q 86.89386718750004-53.27  86.54386718750003-50.05Q 86.20386718750002-46.83  86.20386718750002-42.09L 86.20386718750002-42.09L 86.20386718750002-25.54Q 86.20386718750002-20.8  86.54386718750003-17.6Q 86.89386718750004-14.4  87.67386718750004-12.45Q 88.45386718750002-10.5  89.64386718750004-9.64Q 90.84386718750002-8.79  92.60386718750003-8.79ZM 121.95058593750002 0L 121.95058593750002-67.24L 130.98058593750002-67.24L 132.06058593750004-60.4Q 134.11058593750002-64.21  136.77058593750002-66.11Q 139.43058593750004-68.02  142.2105859375-68.02L 142.2105859375-68.02Q 147.53058593750004-68.02  150.07058593750003-64.75Q 152.61058593750002-61.47  152.61058593750002-54.93L 152.61058593750002-54.93Q 152.61058593750002-54.1  152.49058593750004-52.95Q 152.37058593750004-51.81  152.1505859375-50.56Q 151.93058593750004-49.32  151.61058593750002-48.07Q 151.29058593750003-46.83  150.95058593750002-45.8L 150.95058593750002-45.8L 142.36058593750002-45.8L 142.36058593750002-52.05Q 142.36058593750002-54.1  142.09058593750004-55.42Q 141.82058593750003-56.74  141.38058593750003-57.54Q 140.94058593750003-58.35  140.36058593750002-58.67Q 139.77058593750002-58.98  139.09058593750004-58.98L 139.09058593750004-58.98Q 137.62058593750004-58.98  136.38058593750003-58.03Q 135.13058593750003-57.08  134.30058593750002-55.37L 134.30058593750002-55.37L 134.30058593750002 0L 121.95058593750002 0ZM 176.6371484375 0.73L 176.6371484375 0.73Q 172.2871484375 0.73  168.9471484375-0.88Q 165.5971484375-2.49  163.3071484375-5.91Q 161.0071484375-9.33  159.8371484375-14.67Q 158.6671484375-20.02  158.6671484375-27.54L 158.6671484375-27.54L 158.6671484375-40.23Q 158.6671484375-46.63  159.6171484375-51.2Q 160.5671484375-55.76  162.1071484375-58.86Q 163.6471484375-61.96  165.6771484375-63.77Q 167.6971484375-65.58  169.8471484375-66.53Q 171.99714843750002-67.48  174.1171484375-67.75Q 176.24714843750002-68.02  178.0471484375-68.02L 178.0471484375-68.02Q 181.3671484375-68.02  184.4471484375-67.02Q 187.5271484375-66.02  189.8671484375-63.6Q 192.2071484375-61.18  193.6071484375-57.13Q 194.99714843750002-53.08  194.99714843750002-47.02L 194.99714843750002-47.02Q 194.99714843750002-44.97  194.8771484375-42.87Q 194.74714843750002-40.77  194.5571484375-38.75Q 194.3571484375-36.72  194.0471484375-34.81Q 193.7271484375-32.91  193.3871484375-31.3L 193.3871484375-31.3L 171.0671484375-31.3L 171.0671484375-24.46Q 171.0671484375-20.07  171.40714843749998-17.07Q 171.7571484375-14.06  172.5571484375-12.23Q 173.3671484375-10.4  174.7571484375-9.59Q 176.1471484375-8.79  178.24714843750002-8.79L 178.24714843750002-8.79Q 179.3671484375-8.79  180.4471484375-9.25Q 181.5171484375-9.72  182.3271484375-10.79Q 183.1271484375-11.87  183.6171484375-13.65Q 184.1071484375-15.43  184.1071484375-18.07L 184.1071484375-18.07L 184.1071484375-20.17L 194.40714843749998-20.17L 194.40714843749998-17.58Q 194.40714843749998-8.01  189.8471484375-3.64Q 185.2771484375 0.73  176.6371484375 0.73ZM 171.0671484375-39.6L 183.4671484375-39.6Q 183.5171484375-40.14  183.5671484375-41.04Q 183.6171484375-41.94  183.6471484375-42.92Q 183.6671484375-43.9  183.6671484375-44.85Q 183.6671484375-45.8  183.6671484375-46.48L 183.6671484375-46.48Q 183.6671484375-53.13  182.1071484375-56.05Q 180.5371484375-58.98  177.4671484375-58.98L 177.4671484375-58.98Q 175.8571484375-58.98  174.6371484375-58.23Q 173.4171484375-57.47  172.6271484375-55.69Q 171.8471484375-53.91  171.4571484375-50.98Q 171.0671484375-48.05  171.0671484375-43.7L 171.0671484375-43.7L 171.0671484375-39.6Z" data-textpath="hardxcore" data-text-anchor="middle" data-font-size="100" data-letterspacing="0" data-side="left" data-offset="0" data-dx="0" data-dy="94.5" data-xmlspace="preserve" data-href="" data-font="Fjalla One" data-font-src="/Content/clientfonts/fjallaone.woff" data-font-scale="contain" transform="translate(297,94.5)" data-x="297" data-y="0" fill="url('#linearGradientSke63oown41b')"></path></g></svg></g><g transform="matrix(0.9159,0,0,0.8489,425.4132,333.5397)"><svg width="187.0337218024264" height="186.77" viewBox="-5.131860901213205,-5,187.0337218024264,186.77" class="thumb"><defs><linearGradient x1="0.5" y1="1" x2="0.5" y2="0" id="linearGradientSke63oown41g"><stop offset="32.7%" stop-color="#74d14c"></stop><stop offset="63.98%" stop-color="#8dcaff"></stop><stop offset="100%" stop-color="#8dcaff"></stop></linearGradient></defs><circle cx="88.385" cy="88.385" r="88.385" fill="url('#linearGradientSke63oown41g')"></circle></svg></g><g transform="matrix(0.8879,0,0,0.8879,170.7917,436.8211)"><svg width="51.42000000000001" height="77.372" viewBox="43.26,22.628,51.42000000000001,77.372"><defs><linearGradient x1="0" y1="0.5" x2="1" y2="0.5" id="linearGradientSke63oown41n"><stop offset="0%" stop-color="#bbff9c"></stop><stop offset="100%" stop-color="#bbff9c"></stop></linearGradient></defs><path d="M82.685,28.326l-0.028,0.1L70.024,70.597c-0.418,2.281-1.086,4.506-1.976,6.604l-0.038,0.092  C64.285,85.967,56.987,92.34,48.26,95h31.872l9.548-67.372L82.685,28.326z" fill="url('#linearGradientSke63oown41n')"></path></svg></g><g transform="matrix(0.8879,0,0,0.8879,137.1406,444.4296)"><svg width="67.493" height="67.489" viewBox="5.323000000000002,31.139000000000003,67.493,67.489"><defs><linearGradient x1="0" y1="0.5" x2="1" y2="0.5" id="linearGradientSke63oown41t"><stop offset="0%" stop-color="#419a1c"></stop><stop offset="100%" stop-color="#419a1c"></stop></linearGradient></defs><path d="M39.07,36.139c-8.678,0-16.449,3.879-21.723,9.975c-0.223,0.258-0.447,0.514-0.662,0.776  c-0.363,0.455-0.71,0.93-1.047,1.402c-0.191,0.268-0.383,0.535-0.565,0.807c-0.325,0.491-0.625,0.999-0.92,1.513  c-0.162,0.28-0.329,0.56-0.482,0.851c-0.274,0.518-0.52,1.049-0.763,1.583c-0.138,0.3-0.287,0.604-0.416,0.921  c-0.215,0.527-0.403,1.068-0.59,1.607c-0.116,0.337-0.241,0.671-0.342,1.008c-0.166,0.539-0.293,1.096-0.428,1.652  c-0.083,0.346-0.181,0.696-0.251,1.047c-0.119,0.597-0.198,1.207-0.276,1.819c-0.041,0.315-0.106,0.631-0.136,0.955  c-0.094,0.931-0.146,1.878-0.146,2.831c0,15.849,12.899,28.742,28.749,28.742c0.885,0,1.757-0.048,2.625-0.132  c0.252-0.02,0.506-0.05,0.758-0.083c0.655-0.079,1.304-0.176,1.947-0.296c0.221-0.042,0.448-0.081,0.669-0.129  c0.839-0.176,1.669-0.382,2.48-0.635c0.09-0.025,0.178-0.064,0.27-0.093c0.742-0.241,1.475-0.509,2.188-0.807  c0.165-0.063,0.327-0.138,0.49-0.207c0.751-0.325,1.487-0.674,2.205-1.065c0.025-0.014,0.052-0.024,0.075-0.038  c4.035-2.2,7.485-5.339,10.062-9.121c0.038-0.059,0.081-0.119,0.122-0.179c0.456-0.685,0.89-1.394,1.286-2.117  c0.042-0.074,0.086-0.146,0.125-0.222c0.835-1.544,1.524-3.175,2.07-4.865c0.031-0.106,0.074-0.216,0.104-0.319  c0.226-0.741,0.416-1.504,0.583-2.269c0.054-0.236,0.104-0.468,0.146-0.697c0.345-1.776,0.539-3.596,0.539-5.469  C67.816,49.038,54.919,36.139,39.07,36.139z" fill="url('#linearGradientSke63oown41t')"></path></svg></g><g transform="matrix(0.8879,0,0,0.8879,152.1044,416.7315)"><svg width="63.79500000000001" height="65.376" viewBox="22.025,0,63.79500000000001,65.376"><defs><linearGradient x1="0" y1="0.5" x2="1" y2="0.5" id="linearGradientSke63oown41z"><stop offset="0%" stop-color="#bbff9c"></stop><stop offset="100%" stop-color="#4c96d7"></stop></linearGradient></defs><path d="M63.365,5c-5.788,0-11.185,2.862-14.446,7.656l-0.139,0.172L27.025,35.801c3.71-1.54,7.779-2.401,12.044-2.401  c15.831,0,28.959,11.746,31.155,26.976l9.908-33.126c0.455-1.587,0.688-3.207,0.688-4.797C80.819,12.828,72.987,5,63.365,5z" fill="url('#linearGradientSke63oown41z')"></path></svg></g><g transform="matrix(-5.0277,4.527,-1.8249,-2.0268,658.4719,183.1862)"><svg width="91.00001242314785" height="90.76795185503664" viewBox="4.499987576852149,4.616,91.00001242314785,90.76795185503664"><defs><linearGradient x1="0" y1="0.5" x2="1" y2="0.5" id="linearGradientSke63oown425"><stop offset="0%" stop-color="#000000"></stop><stop offset="100%" stop-color="#000000"></stop></linearGradient></defs><path fill-rule="evenodd" clip-rule="evenodd" d="M23.334,9.616C-16.479,48.798,37.012,120.323,90.5,76.788    C39.502,95.446,6.539,48.798,23.334,9.616z" fill="url('#linearGradientSke63oown425')"></path></svg></g><g transform="matrix(-5.0277,4.527,-1.8249,-2.0268,658.4719,183.1862)"><svg width="91.00001242314785" height="90.76795185503664" viewBox="4.499987576852149,4.616,91.00001242314785,90.76795185503664"><defs><linearGradient x1="0" y1="0.5" x2="1" y2="0.5" id="linearGradientSke63oown42b"><stop offset="23.22%" stop-color="#4c96d7"></stop><stop offset="87.68%" stop-color="#74d14c"></stop><stop offset="100%" stop-color="#74d14c"></stop></linearGradient></defs><path fill-rule="evenodd" clip-rule="evenodd" d="M23.334,9.616C-16.479,48.798,37.012,120.323,90.5,76.788    C39.502,95.446,6.539,48.798,23.334,9.616z" fill="url('#linearGradientSke63oown42b')"></path></svg></g></g></svg>